<svg width="26" height="23" viewBox="0 0 46 40" fill="none" xmlns="http://www.w3.org/2000/svg">
<g opacity="0.9">
<path d="M12.7446 38.0344C10.9524 38.0344 9.35933 37.6413 7.96539 36.855C5.57578 35.3808 3.78357 32.9238 2.7879 29.3857C1.79223 25.8477 1.69266 22.2113 2.68834 18.3784C3.88314 14.2506 5.97405 10.6143 9.1602 7.76413C12.3463 4.91401 15.9308 3.04668 20.013 2.26044V5.89681C17.1256 6.97789 14.736 8.64865 12.5455 11.0074C10.355 13.4644 8.76193 16.0197 7.96539 18.7715C7.66669 19.8526 7.46756 21.1302 7.46756 22.5061C7.46756 23.8821 7.86582 24.1769 8.76193 23.3907C9.95673 22.7027 11.2511 22.3096 12.645 22.3096C14.8355 22.2113 16.6277 22.9975 18.2208 24.4717C19.8139 26.0442 20.6104 27.9115 20.6104 29.9754C20.6104 32.2359 19.9134 34.1032 18.4199 35.5774C16.9264 37.2482 15.0347 38.0344 12.7446 38.0344ZM35.5455 38.0344C33.7533 38.0344 32.1602 37.6413 30.7663 36.855C28.3766 35.3808 26.5844 32.9238 25.5888 29.3857C24.5931 25.8477 24.4935 22.2113 25.4892 18.3784C26.5844 14.1523 28.7749 10.6143 31.9611 7.66585C35.0476 4.91401 38.7316 3.04668 42.8139 2.26044V5.89681C39.9264 6.97789 37.5368 8.64865 35.3463 11.0074C33.1559 13.4644 31.5628 16.0197 30.7663 18.7715C30.4676 19.8526 30.2684 21.1302 30.2684 22.5061C30.2684 23.8821 30.6667 24.1769 31.5628 23.3907C32.7576 22.7027 34.052 22.3096 35.4459 22.3096C37.6364 22.2113 39.4286 22.9975 41.0217 24.4717C42.6147 26.0442 43.4113 27.9115 43.4113 29.9754C43.4113 32.2359 42.6147 34.1032 41.2208 35.5774C39.6277 37.2482 37.736 38.0344 35.5455 38.0344Z" fill="#22443f"/>
</g>
</svg>
