<svg width="46" height="41" viewBox="0 0 46 41" fill="none" xmlns="http://www.w3.org/2000/svg">
<g opacity="0.9">
<path d="M12.7446 38.9853C10.9524 38.9853 9.35933 38.5823 7.96539 37.7764C5.57578 36.2654 3.78357 33.7469 2.7879 30.1204C1.79223 26.4939 1.69266 22.7666 2.68834 18.8378C3.88314 14.6069 5.97405 10.8796 9.1602 7.95823C12.3463 5.03686 15.9308 3.12285 20.013 2.31696V6.04423C17.1256 7.15234 14.736 8.86487 12.5455 11.2826C10.355 13.801 8.76193 16.4202 7.96539 19.2408C7.66669 20.3489 7.46756 21.6585 7.46756 23.0688C7.46756 24.4791 7.86582 24.7813 8.76193 23.9754C9.95673 23.2703 11.2511 22.8673 12.645 22.8673C14.8355 22.7666 16.6277 23.5725 18.2208 25.0835C19.8139 26.6953 20.6104 28.6093 20.6104 30.7248C20.6104 33.0418 19.9134 34.9558 18.4199 36.4668C16.9264 38.1794 15.0347 38.9853 12.7446 38.9853ZM35.5455 38.9853C33.7533 38.9853 32.1602 38.5823 30.7663 37.7764C28.3766 36.2654 26.5844 33.7469 25.5888 30.1204C24.5931 26.4939 24.4935 22.7666 25.4892 18.8378C26.5844 14.5061 28.7749 10.8796 31.9611 7.8575C35.0476 5.03686 38.7316 3.12285 42.8139 2.31696V6.04423C39.9264 7.15234 37.5368 8.86487 35.3463 11.2826C33.1559 13.801 31.5628 16.4202 30.7663 19.2408C30.4676 20.3489 30.2684 21.6585 30.2684 23.0688C30.2684 24.4791 30.6667 24.7813 31.5628 23.9754C32.7576 23.2703 34.052 22.8673 35.4459 22.8673C37.6364 22.7666 39.4286 23.5725 41.0217 25.0835C42.6147 26.6953 43.4113 28.6093 43.4113 30.7248C43.4113 33.0418 42.6147 34.9558 41.2208 36.4668C39.6277 38.1794 37.736 38.9853 35.5455 38.9853Z" fill="#8A9669"/>
</g>
</svg>
