<svg width="1370" height="305" viewBox="0 0 1370 305" fill="none" xmlns="http://www.w3.org/2000/svg">
<g clip-path="url(#clip0_44_81)">
<mask id="mask0_44_81" style="mask-type:luminance" maskUnits="userSpaceOnUse" x="0" y="0" width="1370" height="305">
<path d="M1370 0H0V305H1370V0Z" fill="white"/>
</mask>
<g mask="url(#mask0_44_81)">
<path d="M417.171 309.392H1430.07L1435.51 183.55C1435.51 183.55 1198.21 20.9738 953.03 81.6372C707.844 142.301 644.562 283.021 417.171 236.928V309.392Z" fill="#9BAE7F"/>
<path d="M1434.62 293.323L1428.27 129.823C1428.27 129.823 1294.23 223.363 955.187 145.954C616.149 68.544 150.964 -115.293 -38.2637 142.732V293.323H1434.62Z" fill="#B9C698"/>
<path d="M-215.451 309.371H1506.41L1496.6 139.489C1496.6 139.489 1354.66 355.587 907.876 271.734C461.087 187.88 30.0691 -86.2546 -214.347 265.29C-214.347 265.29 -214.832 282.918 -215.451 309.371Z" fill="white"/>
</g>
</g>
<defs>
<clipPath id="clip0_44_81">
<rect width="1370" height="305" fill="white"/>
</clipPath>
</defs>
</svg>
