<svg width="1368" height="255" viewBox="0 0 1368 255" fill="none" xmlns="http://www.w3.org/2000/svg">
<g clip-path="url(#clip0_15_8)">
<mask id="mask0_15_8" style="mask-type:luminance" maskUnits="userSpaceOnUse" x="0" y="0" width="1368" height="255">
<path d="M1368 0H0V255H1368V0Z" fill="white"/>
</mask>
<g mask="url(#mask0_15_8)">
<path d="M951.438 256.293V195.708C724.379 234.245 661.189 116.593 416.362 65.8747C171.534 15.1561 -65.4108 151.081 -65.4108 151.081L-59.9836 256.293H951.438Z" fill="#9BAE7F"/>
<path d="M1406.21 242.858V116.954C1217.26 -98.772 752.751 54.928 414.207 119.647C75.6642 184.367 -58.1801 106.161 -58.1801 106.161L-64.5258 242.858H1406.21Z" fill="#B9C698"/>
<path d="M1583.14 256.293C1582.52 234.159 1582.03 219.42 1582.03 219.42C1337.97 -74.4937 907.586 154.701 461.45 224.808C15.3132 294.915 -126.413 114.243 -126.413 114.243L-136.216 256.275L1583.14 256.293Z" fill="white"/>
</g>
</g>
<defs>
<clipPath id="clip0_15_8">
<rect width="1368" height="255" fill="white"/>
</clipPath>
</defs>
</svg>
