<svg width="1366" height="255" viewBox="0 0 1366 255" fill="none" xmlns="http://www.w3.org/2000/svg">
<g clip-path="url(#clip0_69_2)">
<mask id="mask0_69_2" style="mask-type:luminance" maskUnits="userSpaceOnUse" x="0" y="0" width="1366" height="255">
<path d="M1366 0H0V255H1366V0Z" fill="white"/>
</mask>
<g mask="url(#mask0_69_2)">
<path d="M950.047 256.292V195.708C723.32 234.245 660.222 116.593 415.753 65.8746C171.284 15.156 -65.3152 151.081 -65.3152 151.081L-59.8959 256.292H950.047Z" fill="#9BAE7F"/>
<path d="M1404.15 242.858V116.954C1215.48 -98.772 751.65 54.9281 413.602 119.647C75.5535 184.367 -58.095 106.161 -58.095 106.161L-64.4315 242.858H1404.15Z" fill="#B9C698"/>
<path d="M1580.82 256.292C1580.2 234.159 1579.72 219.42 1579.72 219.42C1336.02 -74.4938 906.259 154.701 460.775 224.808C15.2908 294.915 -126.228 114.243 -126.228 114.243L-136.016 256.275L1580.82 256.292Z" fill="white"/>
</g>
</g>
<defs>
<clipPath id="clip0_69_2">
<rect width="1366" height="255" fill="white"/>
</clipPath>
</defs>
</svg>
