<svg width="1220" height="255" viewBox="0 0 1220 255" fill="none" xmlns="http://www.w3.org/2000/svg">
<g clip-path="url(#clip0_225_146)">
<mask id="mask0_225_146" style="mask-type:luminance" maskUnits="userSpaceOnUse" x="0" y="0" width="1224" height="255">
<path d="M1224 0H0V255H1224V0Z" fill="white"/>
</mask>
<g mask="url(#mask0_225_146)">
<path d="M851.287 256.292V195.708C648.128 234.245 591.59 116.593 372.534 65.8746C153.478 15.156 -58.5254 151.081 -58.5254 151.081L-53.6694 256.292H851.287Z" fill="#9BAE7F"/>
<path d="M1258.19 242.858V116.954C1089.12 -98.772 673.514 54.9281 370.607 119.647C67.6997 184.367 -52.0557 106.161 -52.0557 106.161L-57.7334 242.858H1258.19Z" fill="#B9C698"/>
<path d="M1416.49 256.292C1415.94 234.159 1415.5 219.42 1415.5 219.42C1197.14 -74.4938 812.051 154.701 412.876 224.808C13.7014 294.915 -113.106 114.243 -113.106 114.243L-121.877 256.275L1416.49 256.292Z" fill="white"/>
</g>
</g>
<defs>
<clipPath id="clip0_225_146">
<rect width="1224" height="255" fill="white"/>
</clipPath>
</defs>
</svg>
