<svg width="130" height="100" viewBox="0 0 130 100" fill="none" xmlns="http://www.w3.org/2000/svg">
<g clip-path="url(#clip0_76_101)">
<mask id="mask0_76_101" style="mask-type:luminance" maskUnits="userSpaceOnUse" x="0" y="0" width="130" height="100">
<path d="M130 0H0V100H130V0Z" fill="white"/>
</mask>
<g mask="url(#mask0_76_101)">
<g opacity="0.479204">
<path d="M87.6696 13.9267C86.2446 12.5167 83.9394 12.5236 82.5294 13.9487C81.1194 15.3737 81.1263 17.6789 82.5514 19.0889C90.81 27.2816 95.3603 38.2168 95.3603 49.8784C95.3603 61.54 90.81 72.474 82.5514 80.6678C81.1263 82.0778 81.1194 84.3831 82.5294 85.8069C83.2419 86.5275 84.173 86.8838 85.1099 86.8838C86.0341 86.8838 86.9571 86.5345 87.6696 85.8301C97.3174 76.2621 102.632 63.4947 102.632 49.8784C102.632 36.2609 97.3174 23.4947 87.6696 13.9267Z" fill="#525F47"/>
</g>
<g opacity="0.211573">
<path d="M76.9114 25.2266C75.538 23.8665 73.3337 23.8875 71.9813 25.2543C70.6279 26.6277 70.6423 28.832 72.0091 30.1844C77.2731 35.3929 80.1752 42.3865 80.1752 49.8825C80.1752 57.3786 77.2731 64.3733 72.0091 69.5818C70.6357 70.9342 70.6212 73.1374 71.9813 74.5108C72.6647 75.2008 73.5633 75.5436 74.4564 75.5436C75.3416 75.5436 76.228 75.2086 76.9114 74.533C83.5145 68.0132 87.1488 59.2612 87.1488 49.8825C87.1488 40.5038 83.5145 31.753 76.9114 25.2266Z" fill="#373E33"/>
</g>
<path d="M58.043 6.20503C56.949 5.68303 55.662 5.82104 54.72 6.58203L24.147 31.039H9.539C6.076 31.039 3.253 33.86 3.253 37.324V62.466C3.253 65.929 6.076 68.751 9.539 68.751H24.147L54.712 93.208C55.284 93.66 55.982 93.893 56.681 93.893C57.145 93.893 57.609 93.792 58.043 93.585C59.131 93.057 59.823 91.957 59.823 90.75V9.03903C59.823 7.83203 59.131 6.73203 58.043 6.20503ZM22.11 62.466H9.539V37.324H22.11V62.466ZM53.537 84.207L28.395 64.094V35.696L53.537 15.582V84.207Z" fill="#525F47"/>
</g>
</g>
<defs>
<clipPath id="clip0_76_101">
<rect width="130" height="100" fill="white"/>
</clipPath>
</defs>
</svg>
