<svg width="222" height="222" viewBox="0 0 222 222" fill="none" xmlns="http://www.w3.org/2000/svg">
<g clip-path="url(#clip0_203_43)">
<g filter="url(#filter0_d_203_43)">
<path d="M-4.05311e-06 111C-4.05311e-06 49.6964 49.6964 0 111 0C172.304 0 222 49.6964 222 111C222 172.304 172.304 222 111 222C49.6964 222 -4.05311e-06 172.304 -4.05311e-06 111Z" fill="#F7F7F7"/>
</g>
<g clip-path="url(#clip1_203_43)">
<mask id="mask0_203_43" style="mask-type:luminance" maskUnits="userSpaceOnUse" x="36" y="36" width="150" height="150">
<path d="M186 36H36V186H186V36Z" fill="white"/>
</mask>
<g mask="url(#mask0_203_43)">
<g opacity="0.428797">
<path d="M104.024 89.1728C103.332 89.3328 102.649 88.9228 102.143 88.6198C102.046 88.5608 101.954 88.5058 101.888 88.4718C99.4932 87.2208 97.3042 85.6698 95.3832 83.8628C94.9272 83.4338 94.4802 82.9838 94.0532 82.5248C91.1502 79.4058 88.9692 75.6748 87.5712 71.4358C87.0842 69.9598 86.6632 68.3878 87.3162 66.8188C87.5302 66.3068 88.0552 65.3828 89.1762 64.9558C90.3282 64.5178 91.6662 64.7628 93.0472 65.6658C96.0762 67.6458 97.8722 70.5528 99.2722 73.5928C99.4932 70.6718 100.061 68.0538 100.99 65.6478C101.321 64.7948 101.724 63.8958 102.442 63.1068C103.273 62.1938 104.399 61.6078 105.53 61.4998C106.888 61.3708 108.678 62.0068 109.4 63.7088C109.937 64.9778 109.735 66.3898 109.502 67.6128C109.169 69.3658 108.704 71.1318 108.254 72.8398C107.801 74.5608 107.333 76.3388 107.004 78.0898C106.805 79.1548 106.654 80.2438 106.508 81.2968C106.435 81.8298 106.358 82.3818 106.276 82.9248C106.086 84.1868 105.833 85.6738 105.403 87.1468C105.383 87.2128 105.364 87.2938 105.343 87.3828C105.202 87.9738 104.99 88.8658 104.137 89.1418C104.099 89.1538 104.062 89.1648 104.024 89.1728Z" stroke="#81948B" stroke-width="1.69" stroke-miterlimit="10"/>
</g>
<g opacity="0.705185">
<path d="M125.059 79.5011H125.061M124.836 80.1341C124.231 79.9381 124.08 79.3061 123.981 78.8871C123.965 78.8241 123.954 78.7671 123.94 78.7201C123.634 77.6751 123.454 76.6201 123.319 75.7261C123.261 75.3401 123.206 74.9491 123.155 74.5711C123.051 73.8241 122.944 73.0511 122.802 72.2961C122.57 71.0551 122.237 69.7931 121.916 68.5731C121.597 67.3621 121.267 66.1091 121.031 64.8661C120.867 63.9981 120.722 62.9971 121.104 62.0971C121.616 60.8901 122.885 60.4391 123.848 60.5301C124.651 60.6061 125.449 61.0221 126.038 61.6701C126.547 62.2301 126.833 62.8671 127.068 63.4721C127.727 65.1791 128.129 67.0351 128.287 69.1061C129.28 66.9511 130.554 64.8901 132.703 63.4841C133.682 62.8441 134.63 62.6701 135.447 62.9811C136.242 63.2841 136.615 63.9391 136.766 64.3021C137.229 65.4161 136.931 66.5301 136.585 67.5771C135.593 70.5831 134.046 73.2301 131.988 75.4421C131.685 75.7671 131.368 76.0861 131.044 76.3911C129.682 77.6721 128.13 78.7721 126.431 79.6591C126.384 79.6841 126.319 79.7231 126.25 79.7641C125.891 79.9801 125.407 80.2711 124.916 80.1571C124.89 80.1501 124.863 80.1431 124.836 80.1341Z" stroke="#81948B" stroke-width="1.69" stroke-miterlimit="10"/>
</g>
<path d="M127.141 134.582C127.141 152.185 113.205 166.454 96.013 166.454C78.822 166.454 64.885 152.185 64.885 134.582C64.885 116.98 78.822 102.71 96.013 102.71C113.205 102.71 127.141 116.98 127.141 134.582Z" stroke="#81948B" stroke-width="3.437" stroke-miterlimit="10"/>
<path d="M161.283 136.326C161.283 152.522 148.459 165.652 132.64 165.652C116.822 165.652 104 152.522 104 136.326C104 120.13 116.822 107 132.64 107C148.459 107 161.283 120.13 161.283 136.326Z" stroke="#81948B" stroke-width="3.437" stroke-miterlimit="10"/>
</g>
</g>
</g>
<defs>
<filter id="filter0_d_203_43" x="-21" y="-18" width="266" height="266" filterUnits="userSpaceOnUse" color-interpolation-filters="sRGB">
<feFlood flood-opacity="0" result="BackgroundImageFix"/>
<feColorMatrix in="SourceAlpha" type="matrix" values="0 0 0 0 0 0 0 0 0 0 0 0 0 0 0 0 0 0 127 0" result="hardAlpha"/>
<feOffset dx="1" dy="4"/>
<feGaussianBlur stdDeviation="11"/>
<feComposite in2="hardAlpha" operator="out"/>
<feColorMatrix type="matrix" values="0 0 0 0 0 0 0 0 0 0 0 0 0 0 0 0 0 0 0.25 0"/>
<feBlend mode="normal" in2="BackgroundImageFix" result="effect1_dropShadow_203_43"/>
<feBlend mode="normal" in="SourceGraphic" in2="effect1_dropShadow_203_43" result="shape"/>
</filter>
<clipPath id="clip0_203_43">
<rect width="222" height="222" fill="white"/>
</clipPath>
<clipPath id="clip1_203_43">
<rect width="150" height="150" fill="white" transform="translate(36 36)"/>
</clipPath>
</defs>
</svg>
